<?xml version="1.0" encoding="UTF-8" standalone="no"?>
<!DOCTYPE svg PUBLIC "-//W3C//DTD SVG 1.1//EN"
 "http://www.w3.org/Graphics/SVG/1.1/DTD/svg11.dtd">
<!-- Generated by graphviz version 12.1.2 (0)
 -->
<!-- Title: Tree Pages: 1 -->
<svg width="648pt" height="392pt"
 viewBox="0.00 0.00 648.21 392.12" xmlns="http://www.w3.org/2000/svg" xmlns:xlink="http://www.w3.org/1999/xlink">
<g id="graph0" class="graph" transform="scale(1 1) rotate(0) translate(4 388.12)">
<title>Tree</title>
<polygon fill="white" stroke="none" points="-4,4 -4,-388.12 644.21,-388.12 644.21,4 -4,4"/>
<!-- 0 -->
<g id="node1" class="node">
<title>0</title>
<path fill="#eead7f" stroke="black" d="M547.93,-384.5C547.93,-384.5 421.68,-384.5 421.68,-384.5 415.68,-384.5 409.68,-378.5 409.68,-372.5 409.68,-372.5 409.68,-325.5 409.68,-325.5 409.68,-319.5 415.68,-313.5 421.68,-313.5 421.68,-313.5 547.93,-313.5 547.93,-313.5 553.93,-313.5 559.93,-319.5 559.93,-325.5 559.93,-325.5 559.93,-372.5 559.93,-372.5 559.93,-378.5 553.93,-384.5 547.93,-384.5"/>
<text text-anchor="start" x="417.68" y="-367.2" font-family="Helvetica,sans-Serif" font-size="14.00">Coupler_System ≤ 0.5</text>
<text text-anchor="start" x="421.43" y="-351.45" font-family="Helvetica,sans-Serif" font-size="14.00">squared_error = 0.48</text>
<text text-anchor="start" x="428.93" y="-335.7" font-family="Helvetica,sans-Serif" font-size="14.00">samples = 404710</text>
<text text-anchor="start" x="447.68" y="-319.95" font-family="Helvetica,sans-Serif" font-size="14.00">value = 10.1</text>
</g>
<!-- 1 -->
<g id="node2" class="node">
<title>1</title>
<path fill="#eca36f" stroke="black" d="M379.18,-277.5C379.18,-277.5 260.43,-277.5 260.43,-277.5 254.43,-277.5 248.43,-271.5 248.43,-265.5 248.43,-265.5 248.43,-218.5 248.43,-218.5 248.43,-212.5 254.43,-206.5 260.43,-206.5 260.43,-206.5 379.18,-206.5 379.18,-206.5 385.18,-206.5 391.18,-212.5 391.18,-218.5 391.18,-218.5 391.18,-265.5 391.18,-265.5 391.18,-271.5 385.18,-277.5 379.18,-277.5"/>
<text text-anchor="start" x="260.55" y="-260.2" font-family="Helvetica,sans-Serif" font-size="14.00">YearMade ≤ 1991.5</text>
<text text-anchor="start" x="256.43" y="-244.45" font-family="Helvetica,sans-Serif" font-size="14.00">squared_error = 0.42</text>
<text text-anchor="start" x="263.93" y="-228.7" font-family="Helvetica,sans-Serif" font-size="14.00">samples = 360847</text>
<text text-anchor="start" x="278.93" y="-212.95" font-family="Helvetica,sans-Serif" font-size="14.00">value = 10.21</text>
</g>
<!-- 0&#45;&gt;1 -->
<g id="edge1" class="edge">
<title>0&#45;&gt;1</title>
<path fill="none" stroke="black" d="M429.86,-313.04C415.19,-303.7 399.2,-293.53 384.07,-283.9"/>
<polygon fill="black" stroke="black" points="386.38,-281.22 376.06,-278.8 382.62,-287.12 386.38,-281.22"/>
<text text-anchor="middle" x="380.21" y="-296.97" font-family="Helvetica,sans-Serif" font-size="14.00">True</text>
</g>
<!-- 2 -->
<g id="node7" class="node">
<title>2</title>
<path fill="#ffffff" stroke="black" d="M626.18,-55.62C626.18,-55.62 507.43,-55.62 507.43,-55.62 501.43,-55.62 495.43,-49.62 495.43,-43.62 495.43,-43.62 495.43,-12.38 495.43,-12.38 495.43,-6.38 501.43,-0.38 507.43,-0.38 507.43,-0.38 626.18,-0.38 626.18,-0.38 632.18,-0.38 638.18,-6.38 638.18,-12.38 638.18,-12.38 638.18,-43.62 638.18,-43.62 638.18,-49.62 632.18,-55.62 626.18,-55.62"/>
<text text-anchor="start" x="503.43" y="-38.33" font-family="Helvetica,sans-Serif" font-size="14.00">squared_error = 0.12</text>
<text text-anchor="start" x="514.68" y="-22.57" font-family="Helvetica,sans-Serif" font-size="14.00">samples = 43863</text>
<text text-anchor="start" x="529.68" y="-6.83" font-family="Helvetica,sans-Serif" font-size="14.00">value = 9.21</text>
</g>
<!-- 0&#45;&gt;2 -->
<g id="edge6" class="edge">
<title>0&#45;&gt;2</title>
<path fill="none" stroke="black" d="M493.73,-313.25C509.25,-252.9 541.04,-129.2 557.09,-66.79"/>
<polygon fill="black" stroke="black" points="560.42,-67.9 559.51,-57.34 553.64,-66.16 560.42,-67.9"/>
<text text-anchor="middle" x="572.61" y="-71.97" font-family="Helvetica,sans-Serif" font-size="14.00">False</text>
</g>
<!-- 3 -->
<g id="node3" class="node">
<title>3</title>
<path fill="#f1ba92" stroke="black" d="M132.18,-55.62C132.18,-55.62 13.43,-55.62 13.43,-55.62 7.43,-55.62 1.43,-49.62 1.43,-43.62 1.43,-43.62 1.43,-12.38 1.43,-12.38 1.43,-6.38 7.43,-0.38 13.43,-0.38 13.43,-0.38 132.18,-0.38 132.18,-0.38 138.18,-0.38 144.18,-6.38 144.18,-12.38 144.18,-12.38 144.18,-43.62 144.18,-43.62 144.18,-49.62 138.18,-55.62 132.18,-55.62"/>
<text text-anchor="start" x="9.43" y="-38.33" font-family="Helvetica,sans-Serif" font-size="14.00">squared_error = 0.37</text>
<text text-anchor="start" x="16.93" y="-22.57" font-family="Helvetica,sans-Serif" font-size="14.00">samples = 155724</text>
<text text-anchor="start" x="35.68" y="-6.83" font-family="Helvetica,sans-Serif" font-size="14.00">value = 9.97</text>
</g>
<!-- 1&#45;&gt;3 -->
<g id="edge2" class="edge">
<title>1&#45;&gt;3</title>
<path fill="none" stroke="black" d="M271.87,-206.16C247.43,-188.4 222.8,-170.5 222.8,-170.5 222.8,-170.5 154.04,-105.63 109.63,-63.74"/>
<polygon fill="black" stroke="black" points="112.14,-61.3 102.47,-56.99 107.34,-66.39 112.14,-61.3"/>
</g>
<!-- 4 -->
<g id="node4" class="node">
<title>4</title>
<path fill="#e99355" stroke="black" d="M395.3,-170.5C395.3,-170.5 244.3,-170.5 244.3,-170.5 238.3,-170.5 232.3,-164.5 232.3,-158.5 232.3,-158.5 232.3,-111.5 232.3,-111.5 232.3,-105.5 238.3,-99.5 244.3,-99.5 244.3,-99.5 395.3,-99.5 395.3,-99.5 401.3,-99.5 407.3,-105.5 407.3,-111.5 407.3,-111.5 407.3,-158.5 407.3,-158.5 407.3,-164.5 401.3,-170.5 395.3,-170.5"/>
<text text-anchor="start" x="240.3" y="-153.2" font-family="Helvetica,sans-Serif" font-size="14.00">fiProductClassDesc ≤ 13.5</text>
<text text-anchor="start" x="256.43" y="-137.45" font-family="Helvetica,sans-Serif" font-size="14.00">squared_error = 0.37</text>
<text text-anchor="start" x="263.93" y="-121.7" font-family="Helvetica,sans-Serif" font-size="14.00">samples = 205123</text>
<text text-anchor="start" x="282.68" y="-105.95" font-family="Helvetica,sans-Serif" font-size="14.00">value = 10.4</text>
</g>
<!-- 1&#45;&gt;4 -->
<g id="edge3" class="edge">
<title>1&#45;&gt;4</title>
<path fill="none" stroke="black" d="M319.8,-206.04C319.8,-198.42 319.8,-190.25 319.8,-182.27"/>
<polygon fill="black" stroke="black" points="323.3,-182.32 319.8,-172.32 316.3,-182.32 323.3,-182.32"/>
</g>
<!-- 5 -->
<g id="node5" class="node">
<title>5</title>
<path fill="#eeae80" stroke="black" d="M297.18,-55.62C297.18,-55.62 178.43,-55.62 178.43,-55.62 172.43,-55.62 166.43,-49.62 166.43,-43.62 166.43,-43.62 166.43,-12.38 166.43,-12.38 166.43,-6.38 172.43,-0.38 178.43,-0.38 178.43,-0.38 297.18,-0.38 297.18,-0.38 303.18,-0.38 309.18,-6.38 309.18,-12.38 309.18,-12.38 309.18,-43.62 309.18,-43.62 309.18,-49.62 303.18,-55.62 297.18,-55.62"/>
<text text-anchor="start" x="174.43" y="-38.33" font-family="Helvetica,sans-Serif" font-size="14.00">squared_error = 0.21</text>
<text text-anchor="start" x="185.68" y="-22.57" font-family="Helvetica,sans-Serif" font-size="14.00">samples = 79749</text>
<text text-anchor="start" x="196.93" y="-6.83" font-family="Helvetica,sans-Serif" font-size="14.00">value = 10.09</text>
</g>
<!-- 4&#45;&gt;5 -->
<g id="edge4" class="edge">
<title>4&#45;&gt;5</title>
<path fill="none" stroke="black" d="M292.5,-99.04C283.91,-88.04 274.41,-75.88 265.77,-64.82"/>
<polygon fill="black" stroke="black" points="268.61,-62.76 259.69,-57.03 263.09,-67.07 268.61,-62.76"/>
</g>
<!-- 6 -->
<g id="node6" class="node">
<title>6</title>
<path fill="#e58139" stroke="black" d="M462.18,-55.62C462.18,-55.62 343.43,-55.62 343.43,-55.62 337.43,-55.62 331.43,-49.62 331.43,-43.62 331.43,-43.62 331.43,-12.38 331.43,-12.38 331.43,-6.38 337.43,-0.38 343.43,-0.38 343.43,-0.38 462.18,-0.38 462.18,-0.38 468.18,-0.38 474.18,-6.38 474.18,-12.38 474.18,-12.38 474.18,-43.62 474.18,-43.62 474.18,-49.62 468.18,-55.62 462.18,-55.62"/>
<text text-anchor="start" x="339.43" y="-38.33" font-family="Helvetica,sans-Serif" font-size="14.00">squared_error = 0.38</text>
<text text-anchor="start" x="346.93" y="-22.57" font-family="Helvetica,sans-Serif" font-size="14.00">samples = 125374</text>
<text text-anchor="start" x="361.93" y="-6.83" font-family="Helvetica,sans-Serif" font-size="14.00">value = 10.59</text>
</g>
<!-- 4&#45;&gt;6 -->
<g id="edge5" class="edge">
<title>4&#45;&gt;6</title>
<path fill="none" stroke="black" d="M347.44,-99.04C356.13,-88.04 365.74,-75.88 374.49,-64.82"/>
<polygon fill="black" stroke="black" points="377.19,-67.04 380.65,-57.03 371.7,-62.7 377.19,-67.04"/>
</g>
</g>
</svg>
