<?xml version="1.0" encoding="UTF-8" standalone="no"?>
<!DOCTYPE svg PUBLIC "-//W3C//DTD SVG 1.1//EN"
 "http://www.w3.org/Graphics/SVG/1.1/DTD/svg11.dtd">
<!-- Generated by graphviz version 12.1.2 (0)
 -->
<!-- Title: Tree Pages: 1 -->
<svg width="864pt" height="521pt"
 viewBox="0.00 0.00 864.00 520.76" xmlns="http://www.w3.org/2000/svg" xmlns:xlink="http://www.w3.org/1999/xlink">
<g id="graph0" class="graph" transform="scale(0.738409 0.738409) rotate(0) translate(4 701.25)">
<title>Tree</title>
<polygon fill="white" stroke="none" points="-4,4 -4,-701.25 1166.08,-701.25 1166.08,4 -4,4"/>
<!-- 0 -->
<g id="node1" class="node">
<title>0</title>
<path fill="#f5ceb2" stroke="black" d="M612.09,-697.5C612.09,-697.5 512.09,-697.5 512.09,-697.5 506.09,-697.5 500.09,-691.5 500.09,-685.5 500.09,-685.5 500.09,-638.5 500.09,-638.5 500.09,-632.5 506.09,-626.5 512.09,-626.5 512.09,-626.5 612.09,-626.5 612.09,-626.5 618.09,-626.5 624.09,-632.5 624.09,-638.5 624.09,-638.5 624.09,-685.5 624.09,-685.5 624.09,-691.5 618.09,-697.5 612.09,-697.5"/>
<text text-anchor="start" x="533.59" y="-680.2" font-family="Helvetica,sans-Serif" font-size="14.00">Sex ≤ 0.5</text>
<text text-anchor="start" x="530.59" y="-664.45" font-family="Helvetica,sans-Serif" font-size="14.00">gini = 0.47</text>
<text text-anchor="start" x="517.47" y="-648.7" font-family="Helvetica,sans-Serif" font-size="14.00">samples = 668</text>
<text text-anchor="start" x="508.09" y="-632.95" font-family="Helvetica,sans-Serif" font-size="14.00">value = [415, 253]</text>
</g>
<!-- 1 -->
<g id="node2" class="node">
<title>1</title>
<path fill="#7ebfee" stroke="black" d="M462.34,-590.5C462.34,-590.5 369.84,-590.5 369.84,-590.5 363.84,-590.5 357.84,-584.5 357.84,-578.5 357.84,-578.5 357.84,-531.5 357.84,-531.5 357.84,-525.5 363.84,-519.5 369.84,-519.5 369.84,-519.5 462.34,-519.5 462.34,-519.5 468.34,-519.5 474.34,-525.5 474.34,-531.5 474.34,-531.5 474.34,-578.5 474.34,-578.5 474.34,-584.5 468.34,-590.5 462.34,-590.5"/>
<text text-anchor="start" x="379.34" y="-573.2" font-family="Helvetica,sans-Serif" font-size="14.00">Pclass ≤ 2.5</text>
<text text-anchor="start" x="384.59" y="-557.45" font-family="Helvetica,sans-Serif" font-size="14.00">gini = 0.38</text>
<text text-anchor="start" x="371.47" y="-541.7" font-family="Helvetica,sans-Serif" font-size="14.00">samples = 229</text>
<text text-anchor="start" x="365.84" y="-525.95" font-family="Helvetica,sans-Serif" font-size="14.00">value = [59, 170]</text>
</g>
<!-- 0&#45;&gt;1 -->
<g id="edge1" class="edge">
<title>0&#45;&gt;1</title>
<path fill="none" stroke="black" d="M513.47,-626.04C500.67,-616.83 486.73,-606.8 473.51,-597.3"/>
<polygon fill="black" stroke="black" points="475.88,-594.69 465.72,-591.69 471.8,-600.37 475.88,-594.69"/>
<text text-anchor="middle" x="468.52" y="-610.06" font-family="Helvetica,sans-Serif" font-size="14.00">True</text>
</g>
<!-- 8 -->
<g id="node9" class="node">
<title>8</title>
<path fill="#eb9e67" stroke="black" d="M764.34,-590.5C764.34,-590.5 671.84,-590.5 671.84,-590.5 665.84,-590.5 659.84,-584.5 659.84,-578.5 659.84,-578.5 659.84,-531.5 659.84,-531.5 659.84,-525.5 665.84,-519.5 671.84,-519.5 671.84,-519.5 764.34,-519.5 764.34,-519.5 770.34,-519.5 776.34,-525.5 776.34,-531.5 776.34,-531.5 776.34,-578.5 776.34,-578.5 776.34,-584.5 770.34,-590.5 764.34,-590.5"/>
<text text-anchor="start" x="672.34" y="-573.2" font-family="Helvetica,sans-Serif" font-size="14.00">LogFare ≤ 3.31</text>
<text text-anchor="start" x="686.59" y="-557.45" font-family="Helvetica,sans-Serif" font-size="14.00">gini = 0.31</text>
<text text-anchor="start" x="673.47" y="-541.7" font-family="Helvetica,sans-Serif" font-size="14.00">samples = 439</text>
<text text-anchor="start" x="667.84" y="-525.95" font-family="Helvetica,sans-Serif" font-size="14.00">value = [356, 83]</text>
</g>
<!-- 0&#45;&gt;8 -->
<g id="edge8" class="edge">
<title>0&#45;&gt;8</title>
<path fill="none" stroke="black" d="M614.04,-626.04C627.78,-616.79 642.74,-606.72 656.92,-597.17"/>
<polygon fill="black" stroke="black" points="658.51,-600.32 664.85,-591.83 654.6,-594.52 658.51,-600.32"/>
<text text-anchor="middle" x="661.31" y="-610.1" font-family="Helvetica,sans-Serif" font-size="14.00">False</text>
</g>
<!-- 2 -->
<g id="node3" class="node">
<title>2</title>
<path fill="#40a0e6" stroke="black" d="M242.22,-483.5C242.22,-483.5 157.97,-483.5 157.97,-483.5 151.97,-483.5 145.97,-477.5 145.97,-471.5 145.97,-471.5 145.97,-424.5 145.97,-424.5 145.97,-418.5 151.97,-412.5 157.97,-412.5 157.97,-412.5 242.22,-412.5 242.22,-412.5 248.22,-412.5 254.22,-418.5 254.22,-424.5 254.22,-424.5 254.22,-471.5 254.22,-471.5 254.22,-477.5 248.22,-483.5 242.22,-483.5"/>
<text text-anchor="start" x="165.22" y="-466.2" font-family="Helvetica,sans-Serif" font-size="14.00">SibSp ≤ 0.5</text>
<text text-anchor="start" x="168.59" y="-450.45" font-family="Helvetica,sans-Serif" font-size="14.00">gini = 0.06</text>
<text text-anchor="start" x="155.47" y="-434.7" font-family="Helvetica,sans-Serif" font-size="14.00">samples = 120</text>
<text text-anchor="start" x="153.97" y="-418.95" font-family="Helvetica,sans-Serif" font-size="14.00">value = [4, 116]</text>
</g>
<!-- 1&#45;&gt;2 -->
<g id="edge2" class="edge">
<title>1&#45;&gt;2</title>
<path fill="none" stroke="black" d="M357.35,-525.45C328.63,-511.49 294,-494.65 264.55,-480.33"/>
<polygon fill="black" stroke="black" points="266.25,-477.27 255.73,-476.05 263.19,-483.57 266.25,-477.27"/>
</g>
<!-- 5 -->
<g id="node6" class="node">
<title>5</title>
<path fill="#fffdfb" stroke="black" d="M458.59,-483.5C458.59,-483.5 373.59,-483.5 373.59,-483.5 367.59,-483.5 361.59,-477.5 361.59,-471.5 361.59,-471.5 361.59,-424.5 361.59,-424.5 361.59,-418.5 367.59,-412.5 373.59,-412.5 373.59,-412.5 458.59,-412.5 458.59,-412.5 464.59,-412.5 470.59,-418.5 470.59,-424.5 470.59,-424.5 470.59,-471.5 470.59,-471.5 470.59,-477.5 464.59,-483.5 458.59,-483.5"/>
<text text-anchor="start" x="374.09" y="-466.2" font-family="Helvetica,sans-Serif" font-size="14.00">LogFare ≤ 2.7</text>
<text text-anchor="start" x="388.34" y="-450.45" font-family="Helvetica,sans-Serif" font-size="14.00">gini = 0.5</text>
<text text-anchor="start" x="371.47" y="-434.7" font-family="Helvetica,sans-Serif" font-size="14.00">samples = 109</text>
<text text-anchor="start" x="369.59" y="-418.95" font-family="Helvetica,sans-Serif" font-size="14.00">value = [55, 54]</text>
</g>
<!-- 1&#45;&gt;5 -->
<g id="edge5" class="edge">
<title>1&#45;&gt;5</title>
<path fill="none" stroke="black" d="M416.09,-519.04C416.09,-511.42 416.09,-503.25 416.09,-495.27"/>
<polygon fill="black" stroke="black" points="419.59,-495.32 416.09,-485.32 412.59,-495.32 419.59,-495.32"/>
</g>
<!-- 3 -->
<g id="node4" class="node">
<title>3</title>
<path fill="#3c9ee5" stroke="black" d="M97.84,-368.62C97.84,-368.62 20.34,-368.62 20.34,-368.62 14.34,-368.62 8.34,-362.62 8.34,-356.62 8.34,-356.62 8.34,-325.38 8.34,-325.38 8.34,-319.38 14.34,-313.38 20.34,-313.38 20.34,-313.38 97.84,-313.38 97.84,-313.38 103.84,-313.38 109.84,-319.38 109.84,-325.38 109.84,-325.38 109.84,-356.62 109.84,-356.62 109.84,-362.62 103.84,-368.62 97.84,-368.62"/>
<text text-anchor="start" x="27.59" y="-351.32" font-family="Helvetica,sans-Serif" font-size="14.00">gini = 0.03</text>
<text text-anchor="start" x="18.22" y="-335.57" font-family="Helvetica,sans-Serif" font-size="14.00">samples = 67</text>
<text text-anchor="start" x="16.34" y="-319.82" font-family="Helvetica,sans-Serif" font-size="14.00">value = [1, 66]</text>
</g>
<!-- 2&#45;&gt;3 -->
<g id="edge3" class="edge">
<title>2&#45;&gt;3</title>
<path fill="none" stroke="black" d="M153.14,-412.04C137.33,-400.27 119.75,-387.17 104.1,-375.51"/>
<polygon fill="black" stroke="black" points="106.46,-372.91 96.35,-369.74 102.28,-378.52 106.46,-372.91"/>
</g>
<!-- 4 -->
<g id="node5" class="node">
<title>4</title>
<path fill="#45a3e7" stroke="black" d="M238.84,-368.62C238.84,-368.62 161.34,-368.62 161.34,-368.62 155.34,-368.62 149.34,-362.62 149.34,-356.62 149.34,-356.62 149.34,-325.38 149.34,-325.38 149.34,-319.38 155.34,-313.38 161.34,-313.38 161.34,-313.38 238.84,-313.38 238.84,-313.38 244.84,-313.38 250.84,-319.38 250.84,-325.38 250.84,-325.38 250.84,-356.62 250.84,-356.62 250.84,-362.62 244.84,-368.62 238.84,-368.62"/>
<text text-anchor="start" x="168.97" y="-351.32" font-family="Helvetica,sans-Serif" font-size="14.00">gini = 0.11</text>
<text text-anchor="start" x="159.22" y="-335.57" font-family="Helvetica,sans-Serif" font-size="14.00">samples = 53</text>
<text text-anchor="start" x="157.34" y="-319.82" font-family="Helvetica,sans-Serif" font-size="14.00">value = [3, 50]</text>
</g>
<!-- 2&#45;&gt;4 -->
<g id="edge4" class="edge">
<title>2&#45;&gt;4</title>
<path fill="none" stroke="black" d="M200.09,-412.04C200.09,-401.81 200.09,-390.57 200.09,-380.16"/>
<polygon fill="black" stroke="black" points="203.59,-380.35 200.09,-370.35 196.59,-380.35 203.59,-380.35"/>
</g>
<!-- 6 -->
<g id="node7" class="node">
<title>6</title>
<path fill="#cbe5f8" stroke="black" d="M386.59,-368.62C386.59,-368.62 301.59,-368.62 301.59,-368.62 295.59,-368.62 289.59,-362.62 289.59,-356.62 289.59,-356.62 289.59,-325.38 289.59,-325.38 289.59,-319.38 295.59,-313.38 301.59,-313.38 301.59,-313.38 386.59,-313.38 386.59,-313.38 392.59,-313.38 398.59,-319.38 398.59,-325.38 398.59,-325.38 398.59,-356.62 398.59,-356.62 398.59,-362.62 392.59,-368.62 386.59,-368.62"/>
<text text-anchor="start" x="312.59" y="-351.32" font-family="Helvetica,sans-Serif" font-size="14.00">gini = 0.49</text>
<text text-anchor="start" x="303.22" y="-335.57" font-family="Helvetica,sans-Serif" font-size="14.00">samples = 59</text>
<text text-anchor="start" x="297.59" y="-319.82" font-family="Helvetica,sans-Serif" font-size="14.00">value = [25, 34]</text>
</g>
<!-- 5&#45;&gt;6 -->
<g id="edge6" class="edge">
<title>5&#45;&gt;6</title>
<path fill="none" stroke="black" d="M392.12,-412.04C384.65,-401.15 376.4,-389.12 368.88,-378.15"/>
<polygon fill="black" stroke="black" points="371.89,-376.36 363.35,-370.09 366.12,-380.31 371.89,-376.36"/>
</g>
<!-- 7 -->
<g id="node8" class="node">
<title>7</title>
<path fill="#f6d5bd" stroke="black" d="M535.59,-368.62C535.59,-368.62 450.59,-368.62 450.59,-368.62 444.59,-368.62 438.59,-362.62 438.59,-356.62 438.59,-356.62 438.59,-325.38 438.59,-325.38 438.59,-319.38 444.59,-313.38 450.59,-313.38 450.59,-313.38 535.59,-313.38 535.59,-313.38 541.59,-313.38 547.59,-319.38 547.59,-325.38 547.59,-325.38 547.59,-356.62 547.59,-356.62 547.59,-362.62 541.59,-368.62 535.59,-368.62"/>
<text text-anchor="start" x="461.59" y="-351.32" font-family="Helvetica,sans-Serif" font-size="14.00">gini = 0.48</text>
<text text-anchor="start" x="452.22" y="-335.57" font-family="Helvetica,sans-Serif" font-size="14.00">samples = 50</text>
<text text-anchor="start" x="446.59" y="-319.82" font-family="Helvetica,sans-Serif" font-size="14.00">value = [30, 20]</text>
</g>
<!-- 5&#45;&gt;7 -->
<g id="edge7" class="edge">
<title>5&#45;&gt;7</title>
<path fill="none" stroke="black" d="M441.73,-412.04C449.8,-401.04 458.71,-388.88 466.82,-377.82"/>
<polygon fill="black" stroke="black" points="469.42,-380.19 472.51,-370.06 463.78,-376.05 469.42,-380.19"/>
</g>
<!-- 9 -->
<g id="node10" class="node">
<title>9</title>
<path fill="#e99659" stroke="black" d="M764.34,-483.5C764.34,-483.5 671.84,-483.5 671.84,-483.5 665.84,-483.5 659.84,-477.5 659.84,-471.5 659.84,-471.5 659.84,-424.5 659.84,-424.5 659.84,-418.5 665.84,-412.5 671.84,-412.5 671.84,-412.5 764.34,-412.5 764.34,-412.5 770.34,-412.5 776.34,-418.5 776.34,-424.5 776.34,-424.5 776.34,-471.5 776.34,-471.5 776.34,-477.5 770.34,-483.5 764.34,-483.5"/>
<text text-anchor="start" x="685.47" y="-466.2" font-family="Helvetica,sans-Serif" font-size="14.00">Age ≤ 20.5</text>
<text text-anchor="start" x="686.59" y="-450.45" font-family="Helvetica,sans-Serif" font-size="14.00">gini = 0.24</text>
<text text-anchor="start" x="673.47" y="-434.7" font-family="Helvetica,sans-Serif" font-size="14.00">samples = 320</text>
<text text-anchor="start" x="667.84" y="-418.95" font-family="Helvetica,sans-Serif" font-size="14.00">value = [275, 45]</text>
</g>
<!-- 8&#45;&gt;9 -->
<g id="edge9" class="edge">
<title>8&#45;&gt;9</title>
<path fill="none" stroke="black" d="M718.09,-519.04C718.09,-511.42 718.09,-503.25 718.09,-495.27"/>
<polygon fill="black" stroke="black" points="721.59,-495.32 718.09,-485.32 714.59,-495.32 721.59,-495.32"/>
</g>
<!-- 18 -->
<g id="node19" class="node">
<title>18</title>
<path fill="#f1bc96" stroke="black" d="M991.59,-483.5C991.59,-483.5 906.59,-483.5 906.59,-483.5 900.59,-483.5 894.59,-477.5 894.59,-471.5 894.59,-471.5 894.59,-424.5 894.59,-424.5 894.59,-418.5 900.59,-412.5 906.59,-412.5 906.59,-412.5 991.59,-412.5 991.59,-412.5 997.59,-412.5 1003.59,-418.5 1003.59,-424.5 1003.59,-424.5 1003.59,-471.5 1003.59,-471.5 1003.59,-477.5 997.59,-483.5 991.59,-483.5"/>
<text text-anchor="start" x="914.22" y="-466.2" font-family="Helvetica,sans-Serif" font-size="14.00">SibSp ≤ 0.5</text>
<text text-anchor="start" x="917.59" y="-450.45" font-family="Helvetica,sans-Serif" font-size="14.00">gini = 0.43</text>
<text text-anchor="start" x="904.84" y="-434.7" font-family="Helvetica,sans-Serif" font-size="14.00">samples = 119</text>
<text text-anchor="start" x="902.59" y="-418.95" font-family="Helvetica,sans-Serif" font-size="14.00">value = [81, 38]</text>
</g>
<!-- 8&#45;&gt;18 -->
<g id="edge18" class="edge">
<title>8&#45;&gt;18</title>
<path fill="none" stroke="black" d="M776.68,-527.37C809.39,-512.5 850.21,-493.95 883.92,-478.62"/>
<polygon fill="black" stroke="black" points="885.1,-481.93 892.76,-474.61 882.21,-475.56 885.1,-481.93"/>
</g>
<!-- 10 -->
<g id="node11" class="node">
<title>10</title>
<path fill="#f1b992" stroke="black" d="M684.59,-368.62C684.59,-368.62 599.59,-368.62 599.59,-368.62 593.59,-368.62 587.59,-362.62 587.59,-356.62 587.59,-356.62 587.59,-325.38 587.59,-325.38 587.59,-319.38 593.59,-313.38 599.59,-313.38 599.59,-313.38 684.59,-313.38 684.59,-313.38 690.59,-313.38 696.59,-319.38 696.59,-325.38 696.59,-325.38 696.59,-356.62 696.59,-356.62 696.59,-362.62 690.59,-368.62 684.59,-368.62"/>
<text text-anchor="start" x="610.59" y="-351.32" font-family="Helvetica,sans-Serif" font-size="14.00">gini = 0.43</text>
<text text-anchor="start" x="601.22" y="-335.57" font-family="Helvetica,sans-Serif" font-size="14.00">samples = 55</text>
<text text-anchor="start" x="595.59" y="-319.82" font-family="Helvetica,sans-Serif" font-size="14.00">value = [38, 17]</text>
</g>
<!-- 9&#45;&gt;10 -->
<g id="edge10" class="edge">
<title>9&#45;&gt;10</title>
<path fill="none" stroke="black" d="M692.78,-412.04C684.9,-401.15 676.2,-389.12 668.26,-378.15"/>
<polygon fill="black" stroke="black" points="671.1,-376.11 662.4,-370.07 665.43,-380.22 671.1,-376.11"/>
</g>
<!-- 11 -->
<g id="node12" class="node">
<title>11</title>
<path fill="#e89050" stroke="black" d="M842.34,-376.5C842.34,-376.5 749.84,-376.5 749.84,-376.5 743.84,-376.5 737.84,-370.5 737.84,-364.5 737.84,-364.5 737.84,-317.5 737.84,-317.5 737.84,-311.5 743.84,-305.5 749.84,-305.5 749.84,-305.5 842.34,-305.5 842.34,-305.5 848.34,-305.5 854.34,-311.5 854.34,-317.5 854.34,-317.5 854.34,-364.5 854.34,-364.5 854.34,-370.5 848.34,-376.5 842.34,-376.5"/>
<text text-anchor="start" x="763.47" y="-359.2" font-family="Helvetica,sans-Serif" font-size="14.00">Age ≤ 32.5</text>
<text text-anchor="start" x="764.59" y="-343.45" font-family="Helvetica,sans-Serif" font-size="14.00">gini = 0.19</text>
<text text-anchor="start" x="751.47" y="-327.7" font-family="Helvetica,sans-Serif" font-size="14.00">samples = 265</text>
<text text-anchor="start" x="745.84" y="-311.95" font-family="Helvetica,sans-Serif" font-size="14.00">value = [237, 28]</text>
</g>
<!-- 9&#45;&gt;11 -->
<g id="edge11" class="edge">
<title>9&#45;&gt;11</title>
<path fill="none" stroke="black" d="M744.06,-412.04C750.25,-403.71 756.92,-394.72 763.37,-386.05"/>
<polygon fill="black" stroke="black" points="766.17,-388.14 769.33,-378.03 760.56,-383.97 766.17,-388.14"/>
</g>
<!-- 12 -->
<g id="node13" class="node">
<title>12</title>
<path fill="#e99356" stroke="black" d="M767.34,-269.5C767.34,-269.5 674.84,-269.5 674.84,-269.5 668.84,-269.5 662.84,-263.5 662.84,-257.5 662.84,-257.5 662.84,-210.5 662.84,-210.5 662.84,-204.5 668.84,-198.5 674.84,-198.5 674.84,-198.5 767.34,-198.5 767.34,-198.5 773.34,-198.5 779.34,-204.5 779.34,-210.5 779.34,-210.5 779.34,-257.5 779.34,-257.5 779.34,-263.5 773.34,-269.5 767.34,-269.5"/>
<text text-anchor="start" x="684.72" y="-252.2" font-family="Helvetica,sans-Serif" font-size="14.00">Age ≤ 24.75</text>
<text text-anchor="start" x="689.59" y="-236.45" font-family="Helvetica,sans-Serif" font-size="14.00">gini = 0.22</text>
<text text-anchor="start" x="676.47" y="-220.7" font-family="Helvetica,sans-Serif" font-size="14.00">samples = 181</text>
<text text-anchor="start" x="670.84" y="-204.95" font-family="Helvetica,sans-Serif" font-size="14.00">value = [158, 23]</text>
</g>
<!-- 11&#45;&gt;12 -->
<g id="edge12" class="edge">
<title>11&#45;&gt;12</title>
<path fill="none" stroke="black" d="M771.12,-305.04C765.17,-296.71 758.75,-287.72 752.56,-279.05"/>
<polygon fill="black" stroke="black" points="755.5,-277.15 746.83,-271.04 749.8,-281.21 755.5,-277.15"/>
</g>
<!-- 17 -->
<g id="node18" class="node">
<title>17</title>
<path fill="#e78946" stroke="black" d="M907.84,-261.62C907.84,-261.62 830.34,-261.62 830.34,-261.62 824.34,-261.62 818.34,-255.62 818.34,-249.62 818.34,-249.62 818.34,-218.38 818.34,-218.38 818.34,-212.38 824.34,-206.38 830.34,-206.38 830.34,-206.38 907.84,-206.38 907.84,-206.38 913.84,-206.38 919.84,-212.38 919.84,-218.38 919.84,-218.38 919.84,-249.62 919.84,-249.62 919.84,-255.62 913.84,-261.62 907.84,-261.62"/>
<text text-anchor="start" x="837.97" y="-244.32" font-family="Helvetica,sans-Serif" font-size="14.00">gini = 0.11</text>
<text text-anchor="start" x="828.22" y="-228.57" font-family="Helvetica,sans-Serif" font-size="14.00">samples = 84</text>
<text text-anchor="start" x="826.34" y="-212.82" font-family="Helvetica,sans-Serif" font-size="14.00">value = [79, 5]</text>
</g>
<!-- 11&#45;&gt;17 -->
<g id="edge17" class="edge">
<title>11&#45;&gt;17</title>
<path fill="none" stroke="black" d="M820.4,-305.04C827.97,-294.15 836.33,-282.12 843.96,-271.15"/>
<polygon fill="black" stroke="black" points="846.73,-273.29 849.57,-263.08 840.98,-269.3 846.73,-273.29"/>
</g>
<!-- 13 -->
<g id="node14" class="node">
<title>13</title>
<path fill="#e88d4c" stroke="black" d="M690.34,-162.5C690.34,-162.5 597.84,-162.5 597.84,-162.5 591.84,-162.5 585.84,-156.5 585.84,-150.5 585.84,-150.5 585.84,-103.5 585.84,-103.5 585.84,-97.5 591.84,-91.5 597.84,-91.5 597.84,-91.5 690.34,-91.5 690.34,-91.5 696.34,-91.5 702.34,-97.5 702.34,-103.5 702.34,-103.5 702.34,-150.5 702.34,-150.5 702.34,-156.5 696.34,-162.5 690.34,-162.5"/>
<text text-anchor="start" x="598.34" y="-145.2" font-family="Helvetica,sans-Serif" font-size="14.00">LogFare ≤ 2.18</text>
<text text-anchor="start" x="612.59" y="-129.45" font-family="Helvetica,sans-Serif" font-size="14.00">gini = 0.16</text>
<text text-anchor="start" x="599.84" y="-113.7" font-family="Helvetica,sans-Serif" font-size="14.00">samples = 114</text>
<text text-anchor="start" x="593.84" y="-97.95" font-family="Helvetica,sans-Serif" font-size="14.00">value = [104, 10]</text>
</g>
<!-- 12&#45;&gt;13 -->
<g id="edge13" class="edge">
<title>12&#45;&gt;13</title>
<path fill="none" stroke="black" d="M695.45,-198.04C689.35,-189.71 682.75,-180.72 676.39,-172.05"/>
<polygon fill="black" stroke="black" points="679.25,-170.03 670.51,-164.03 673.6,-174.17 679.25,-170.03"/>
</g>
<!-- 16 -->
<g id="node17" class="node">
<title>16</title>
<path fill="#eb9f69" stroke="black" d="M840.59,-154.62C840.59,-154.62 755.59,-154.62 755.59,-154.62 749.59,-154.62 743.59,-148.62 743.59,-142.62 743.59,-142.62 743.59,-111.38 743.59,-111.38 743.59,-105.38 749.59,-99.38 755.59,-99.38 755.59,-99.38 840.59,-99.38 840.59,-99.38 846.59,-99.38 852.59,-105.38 852.59,-111.38 852.59,-111.38 852.59,-142.62 852.59,-142.62 852.59,-148.62 846.59,-154.62 840.59,-154.62"/>
<text text-anchor="start" x="766.59" y="-137.32" font-family="Helvetica,sans-Serif" font-size="14.00">gini = 0.31</text>
<text text-anchor="start" x="757.22" y="-121.58" font-family="Helvetica,sans-Serif" font-size="14.00">samples = 67</text>
<text text-anchor="start" x="751.59" y="-105.83" font-family="Helvetica,sans-Serif" font-size="14.00">value = [54, 13]</text>
</g>
<!-- 12&#45;&gt;16 -->
<g id="edge16" class="edge">
<title>12&#45;&gt;16</title>
<path fill="none" stroke="black" d="M746.73,-198.04C754.8,-187.04 763.71,-174.88 771.82,-163.82"/>
<polygon fill="black" stroke="black" points="774.42,-166.19 777.51,-156.06 768.78,-162.05 774.42,-166.19"/>
</g>
<!-- 14 -->
<g id="node15" class="node">
<title>14</title>
<path fill="#e99254" stroke="black" d="M612.84,-55.62C612.84,-55.62 535.34,-55.62 535.34,-55.62 529.34,-55.62 523.34,-49.62 523.34,-43.62 523.34,-43.62 523.34,-12.38 523.34,-12.38 523.34,-6.38 529.34,-0.38 535.34,-0.38 535.34,-0.38 612.84,-0.38 612.84,-0.38 618.84,-0.38 624.84,-6.38 624.84,-12.38 624.84,-12.38 624.84,-43.62 624.84,-43.62 624.84,-49.62 618.84,-55.62 612.84,-55.62"/>
<text text-anchor="start" x="542.59" y="-38.33" font-family="Helvetica,sans-Serif" font-size="14.00">gini = 0.21</text>
<text text-anchor="start" x="533.22" y="-22.57" font-family="Helvetica,sans-Serif" font-size="14.00">samples = 50</text>
<text text-anchor="start" x="531.34" y="-6.83" font-family="Helvetica,sans-Serif" font-size="14.00">value = [44, 6]</text>
</g>
<!-- 13&#45;&gt;14 -->
<g id="edge14" class="edge">
<title>13&#45;&gt;14</title>
<path fill="none" stroke="black" d="M619.02,-91.25C612.92,-82.8 606.38,-73.74 600.23,-65.22"/>
<polygon fill="black" stroke="black" points="603.08,-63.18 594.39,-57.12 597.4,-67.28 603.08,-63.18"/>
</g>
<!-- 15 -->
<g id="node16" class="node">
<title>15</title>
<path fill="#e78946" stroke="black" d="M753.84,-55.62C753.84,-55.62 676.34,-55.62 676.34,-55.62 670.34,-55.62 664.34,-49.62 664.34,-43.62 664.34,-43.62 664.34,-12.38 664.34,-12.38 664.34,-6.38 670.34,-0.38 676.34,-0.38 676.34,-0.38 753.84,-0.38 753.84,-0.38 759.84,-0.38 765.84,-6.38 765.84,-12.38 765.84,-12.38 765.84,-43.62 765.84,-43.62 765.84,-49.62 759.84,-55.62 753.84,-55.62"/>
<text text-anchor="start" x="683.59" y="-38.33" font-family="Helvetica,sans-Serif" font-size="14.00">gini = 0.12</text>
<text text-anchor="start" x="674.22" y="-22.57" font-family="Helvetica,sans-Serif" font-size="14.00">samples = 64</text>
<text text-anchor="start" x="672.34" y="-6.83" font-family="Helvetica,sans-Serif" font-size="14.00">value = [60, 4]</text>
</g>
<!-- 13&#45;&gt;15 -->
<g id="edge15" class="edge">
<title>13&#45;&gt;15</title>
<path fill="none" stroke="black" d="M669.52,-91.25C675.78,-82.71 682.48,-73.55 688.78,-64.95"/>
<polygon fill="black" stroke="black" points="691.43,-67.25 694.51,-57.12 685.78,-63.12 691.43,-67.25"/>
</g>
<!-- 19 -->
<g id="node20" class="node">
<title>19</title>
<path fill="#f6d5bd" stroke="black" d="M991.59,-368.62C991.59,-368.62 906.59,-368.62 906.59,-368.62 900.59,-368.62 894.59,-362.62 894.59,-356.62 894.59,-356.62 894.59,-325.38 894.59,-325.38 894.59,-319.38 900.59,-313.38 906.59,-313.38 906.59,-313.38 991.59,-313.38 991.59,-313.38 997.59,-313.38 1003.59,-319.38 1003.59,-325.38 1003.59,-325.38 1003.59,-356.62 1003.59,-356.62 1003.59,-362.62 997.59,-368.62 991.59,-368.62"/>
<text text-anchor="start" x="917.59" y="-351.32" font-family="Helvetica,sans-Serif" font-size="14.00">gini = 0.48</text>
<text text-anchor="start" x="908.22" y="-335.57" font-family="Helvetica,sans-Serif" font-size="14.00">samples = 60</text>
<text text-anchor="start" x="902.59" y="-319.82" font-family="Helvetica,sans-Serif" font-size="14.00">value = [36, 24]</text>
</g>
<!-- 18&#45;&gt;19 -->
<g id="edge19" class="edge">
<title>18&#45;&gt;19</title>
<path fill="none" stroke="black" d="M949.09,-412.04C949.09,-401.81 949.09,-390.57 949.09,-380.16"/>
<polygon fill="black" stroke="black" points="952.59,-380.35 949.09,-370.35 945.59,-380.35 952.59,-380.35"/>
</g>
<!-- 20 -->
<g id="node21" class="node">
<title>20</title>
<path fill="#eda877" stroke="black" d="M1140.59,-368.62C1140.59,-368.62 1055.59,-368.62 1055.59,-368.62 1049.59,-368.62 1043.59,-362.62 1043.59,-356.62 1043.59,-356.62 1043.59,-325.38 1043.59,-325.38 1043.59,-319.38 1049.59,-313.38 1055.59,-313.38 1055.59,-313.38 1140.59,-313.38 1140.59,-313.38 1146.59,-313.38 1152.59,-319.38 1152.59,-325.38 1152.59,-325.38 1152.59,-356.62 1152.59,-356.62 1152.59,-362.62 1146.59,-368.62 1140.59,-368.62"/>
<text text-anchor="start" x="1066.59" y="-351.32" font-family="Helvetica,sans-Serif" font-size="14.00">gini = 0.36</text>
<text text-anchor="start" x="1057.22" y="-335.57" font-family="Helvetica,sans-Serif" font-size="14.00">samples = 59</text>
<text text-anchor="start" x="1051.59" y="-319.82" font-family="Helvetica,sans-Serif" font-size="14.00">value = [45, 14]</text>
</g>
<!-- 18&#45;&gt;20 -->
<g id="edge20" class="edge">
<title>18&#45;&gt;20</title>
<path fill="none" stroke="black" d="M998.71,-412.04C1015.56,-400.16 1034.34,-386.92 1050.99,-375.19"/>
<polygon fill="black" stroke="black" points="1052.61,-378.33 1058.77,-369.71 1048.58,-372.61 1052.61,-378.33"/>
</g>
</g>
</svg>
