<?xml version="1.0" encoding="UTF-8" standalone="no"?>
<!DOCTYPE svg PUBLIC "-//W3C//DTD SVG 1.1//EN"
 "http://www.w3.org/Graphics/SVG/1.1/DTD/svg11.dtd">
<!-- Generated by graphviz version 12.1.2 (0)
 -->
<!-- Title: Tree Pages: 1 -->
<svg width="503pt" height="305pt"
 viewBox="0.00 0.00 503.38 305.22" xmlns="http://www.w3.org/2000/svg" xmlns:xlink="http://www.w3.org/1999/xlink">
<g id="graph0" class="graph" transform="scale(1 1) rotate(0) translate(4 301.22)">
<title>Tree</title>
<polygon fill="white" stroke="none" points="-4,4 -4,-301.22 499.38,-301.22 499.38,4 -4,4"/>
<!-- 0 -->
<g id="node1" class="node">
<title>0</title>
<path fill="#f5ceb2" stroke="black" d="M295.12,-293.5C295.12,-293.5 195.12,-293.5 195.12,-293.5 189.12,-293.5 183.12,-287.5 183.12,-281.5 183.12,-281.5 183.12,-234.5 183.12,-234.5 183.12,-228.5 189.12,-222.5 195.12,-222.5 195.12,-222.5 295.12,-222.5 295.12,-222.5 301.12,-222.5 307.12,-228.5 307.12,-234.5 307.12,-234.5 307.12,-281.5 307.12,-281.5 307.12,-287.5 301.12,-293.5 295.12,-293.5"/>
<text text-anchor="start" x="216.62" y="-276.2" font-family="Helvetica,sans-Serif" font-size="14.00">Sex ≤ 0.5</text>
<text text-anchor="start" x="213.62" y="-260.45" font-family="Helvetica,sans-Serif" font-size="14.00">gini = 0.47</text>
<text text-anchor="start" x="200.5" y="-244.7" font-family="Helvetica,sans-Serif" font-size="14.00">samples = 668</text>
<text text-anchor="start" x="191.12" y="-228.95" font-family="Helvetica,sans-Serif" font-size="14.00">value = [415, 253]</text>
</g>
<!-- 1 -->
<g id="node2" class="node">
<title>1</title>
<path fill="#7ebfee" stroke="black" d="M224.38,-175.5C224.38,-175.5 131.88,-175.5 131.88,-175.5 125.88,-175.5 119.88,-169.5 119.88,-163.5 119.88,-163.5 119.88,-116.5 119.88,-116.5 119.88,-110.5 125.88,-104.5 131.88,-104.5 131.88,-104.5 224.38,-104.5 224.38,-104.5 230.38,-104.5 236.38,-110.5 236.38,-116.5 236.38,-116.5 236.38,-163.5 236.38,-163.5 236.38,-169.5 230.38,-175.5 224.38,-175.5"/>
<text text-anchor="start" x="141.38" y="-158.2" font-family="Helvetica,sans-Serif" font-size="14.00">Pclass ≤ 2.5</text>
<text text-anchor="start" x="146.62" y="-142.45" font-family="Helvetica,sans-Serif" font-size="14.00">gini = 0.38</text>
<text text-anchor="start" x="133.5" y="-126.7" font-family="Helvetica,sans-Serif" font-size="14.00">samples = 229</text>
<text text-anchor="start" x="127.88" y="-110.95" font-family="Helvetica,sans-Serif" font-size="14.00">value = [59, 170]</text>
</g>
<!-- 0&#45;&gt;1 -->
<g id="edge1" class="edge">
<title>0&#45;&gt;1</title>
<path fill="none" stroke="black" d="M225.02,-222.2C218.4,-210.73 210.94,-197.81 203.95,-185.7"/>
<polygon fill="black" stroke="black" points="207,-184 198.97,-177.09 200.94,-187.5 207,-184"/>
<text text-anchor="middle" x="191.75" y="-194.5" font-family="Helvetica,sans-Serif" font-size="14.00">True</text>
</g>
<!-- 2 -->
<g id="node5" class="node">
<title>2</title>
<path fill="#eb9e67" stroke="black" d="M359.38,-175.5C359.38,-175.5 266.88,-175.5 266.88,-175.5 260.88,-175.5 254.88,-169.5 254.88,-163.5 254.88,-163.5 254.88,-116.5 254.88,-116.5 254.88,-110.5 260.88,-104.5 266.88,-104.5 266.88,-104.5 359.38,-104.5 359.38,-104.5 365.38,-104.5 371.38,-110.5 371.38,-116.5 371.38,-116.5 371.38,-163.5 371.38,-163.5 371.38,-169.5 365.38,-175.5 359.38,-175.5"/>
<text text-anchor="start" x="284.25" y="-158.2" font-family="Helvetica,sans-Serif" font-size="14.00">Age ≤ 6.5</text>
<text text-anchor="start" x="281.62" y="-142.45" font-family="Helvetica,sans-Serif" font-size="14.00">gini = 0.31</text>
<text text-anchor="start" x="268.5" y="-126.7" font-family="Helvetica,sans-Serif" font-size="14.00">samples = 439</text>
<text text-anchor="start" x="262.88" y="-110.95" font-family="Helvetica,sans-Serif" font-size="14.00">value = [356, 83]</text>
</g>
<!-- 0&#45;&gt;2 -->
<g id="edge4" class="edge">
<title>0&#45;&gt;2</title>
<path fill="none" stroke="black" d="M265.53,-222.2C272.25,-210.73 279.82,-197.81 286.92,-185.7"/>
<polygon fill="black" stroke="black" points="289.93,-187.48 291.97,-177.08 283.9,-183.94 289.93,-187.48"/>
<text text-anchor="middle" x="299.05" y="-194.54" font-family="Helvetica,sans-Serif" font-size="14.00">False</text>
</g>
<!-- 3 -->
<g id="node3" class="node">
<title>3</title>
<path fill="#40a0e6" stroke="black" d="M96.25,-57.62C96.25,-57.62 12,-57.62 12,-57.62 6,-57.62 0,-51.62 0,-45.62 0,-45.62 0,-14.38 0,-14.38 0,-8.38 6,-2.38 12,-2.38 12,-2.38 96.25,-2.38 96.25,-2.38 102.25,-2.38 108.25,-8.38 108.25,-14.38 108.25,-14.38 108.25,-45.62 108.25,-45.62 108.25,-51.62 102.25,-57.62 96.25,-57.62"/>
<text text-anchor="start" x="22.62" y="-40.33" font-family="Helvetica,sans-Serif" font-size="14.00">gini = 0.06</text>
<text text-anchor="start" x="9.5" y="-24.57" font-family="Helvetica,sans-Serif" font-size="14.00">samples = 120</text>
<text text-anchor="start" x="8" y="-8.82" font-family="Helvetica,sans-Serif" font-size="14.00">value = [4, 116]</text>
</g>
<!-- 1&#45;&gt;3 -->
<g id="edge2" class="edge">
<title>1&#45;&gt;3</title>
<path fill="none" stroke="black" d="M138.21,-104.23C123.9,-91.77 107.79,-77.74 93.53,-65.32"/>
<polygon fill="black" stroke="black" points="95.9,-62.74 86.06,-58.82 91.3,-68.02 95.9,-62.74"/>
</g>
<!-- 4 -->
<g id="node4" class="node">
<title>4</title>
<path fill="#fffdfb" stroke="black" d="M223.62,-57.62C223.62,-57.62 138.62,-57.62 138.62,-57.62 132.62,-57.62 126.62,-51.62 126.62,-45.62 126.62,-45.62 126.62,-14.38 126.62,-14.38 126.62,-8.38 132.62,-2.38 138.62,-2.38 138.62,-2.38 223.62,-2.38 223.62,-2.38 229.62,-2.38 235.62,-8.38 235.62,-14.38 235.62,-14.38 235.62,-45.62 235.62,-45.62 235.62,-51.62 229.62,-57.62 223.62,-57.62"/>
<text text-anchor="start" x="153.38" y="-40.33" font-family="Helvetica,sans-Serif" font-size="14.00">gini = 0.5</text>
<text text-anchor="start" x="136.5" y="-24.57" font-family="Helvetica,sans-Serif" font-size="14.00">samples = 109</text>
<text text-anchor="start" x="134.62" y="-8.82" font-family="Helvetica,sans-Serif" font-size="14.00">value = [55, 54]</text>
</g>
<!-- 1&#45;&gt;4 -->
<g id="edge3" class="edge">
<title>1&#45;&gt;4</title>
<path fill="none" stroke="black" d="M179.09,-104.23C179.4,-93.07 179.75,-80.64 180.06,-69.24"/>
<polygon fill="black" stroke="black" points="183.56,-69.43 180.34,-59.34 176.56,-69.23 183.56,-69.43"/>
</g>
<!-- 5 -->
<g id="node6" class="node">
<title>5</title>
<path fill="#88c4ef" stroke="black" d="M348.88,-57.62C348.88,-57.62 271.38,-57.62 271.38,-57.62 265.38,-57.62 259.38,-51.62 259.38,-45.62 259.38,-45.62 259.38,-14.38 259.38,-14.38 259.38,-8.38 265.38,-2.38 271.38,-2.38 271.38,-2.38 348.88,-2.38 348.88,-2.38 354.88,-2.38 360.88,-8.38 360.88,-14.38 360.88,-14.38 360.88,-45.62 360.88,-45.62 360.88,-51.62 354.88,-57.62 348.88,-57.62"/>
<text text-anchor="start" x="278.62" y="-40.33" font-family="Helvetica,sans-Serif" font-size="14.00">gini = 0.41</text>
<text text-anchor="start" x="269.25" y="-24.57" font-family="Helvetica,sans-Serif" font-size="14.00">samples = 21</text>
<text text-anchor="start" x="267.38" y="-8.82" font-family="Helvetica,sans-Serif" font-size="14.00">value = [6, 15]</text>
</g>
<!-- 2&#45;&gt;5 -->
<g id="edge5" class="edge">
<title>2&#45;&gt;5</title>
<path fill="none" stroke="black" d="M312.16,-104.23C311.85,-93.07 311.5,-80.64 311.19,-69.24"/>
<polygon fill="black" stroke="black" points="314.69,-69.23 310.91,-59.34 307.69,-69.43 314.69,-69.23"/>
</g>
<!-- 6 -->
<g id="node7" class="node">
<title>6</title>
<path fill="#ea995f" stroke="black" d="M483.38,-57.62C483.38,-57.62 390.88,-57.62 390.88,-57.62 384.88,-57.62 378.88,-51.62 378.88,-45.62 378.88,-45.62 378.88,-14.38 378.88,-14.38 378.88,-8.38 384.88,-2.38 390.88,-2.38 390.88,-2.38 483.38,-2.38 483.38,-2.38 489.38,-2.38 495.38,-8.38 495.38,-14.38 495.38,-14.38 495.38,-45.62 495.38,-45.62 495.38,-51.62 489.38,-57.62 483.38,-57.62"/>
<text text-anchor="start" x="405.62" y="-40.33" font-family="Helvetica,sans-Serif" font-size="14.00">gini = 0.27</text>
<text text-anchor="start" x="392.5" y="-24.57" font-family="Helvetica,sans-Serif" font-size="14.00">samples = 418</text>
<text text-anchor="start" x="386.88" y="-8.82" font-family="Helvetica,sans-Serif" font-size="14.00">value = [350, 68]</text>
</g>
<!-- 2&#45;&gt;6 -->
<g id="edge6" class="edge">
<title>2&#45;&gt;6</title>
<path fill="none" stroke="black" d="M353.04,-104.23C367.35,-91.77 383.46,-77.74 397.72,-65.32"/>
<polygon fill="black" stroke="black" points="399.95,-68.02 405.19,-58.82 395.35,-62.74 399.95,-68.02"/>
</g>
</g>
</svg>
